REM DIRINDEX 1\2,1\4,1\5,1\6,1\7,1\3\8,1\3\9,1\3\10
REM DIRNAME folder01,folder02,folder03,folder04,folder05,folder06,folder07,folder08,folder09,folder10
TITLE ""
FILE "DB4500_5th_3B_12.mp3" MP3
  TRACK 01 AUDIO
    TITLE "8:cjc113_2228"
    INDEX 01 00:00:00
  TRACK 02 AUDIO
    TITLE "0:"
    INDEX 01 00:01:07
  TRACK 03 AUDIO
    TITLE "9:cjc113_2229"
    INDEX 01 00:01:30
  TRACK 04 AUDIO
    TITLE "0:"
    INDEX 01 00:02:55
  TRACK 05 AUDIO
    TITLE "10:cjc113_2230"
    INDEX 01 00:03:04
  TRACK 06 AUDIO
    TITLE "0:"
    INDEX 01 00:06:12
  TRACK 07 AUDIO
    TITLE "8:cjc113_2231"
    INDEX 01 00:06:61
  TRACK 08 AUDIO
    TITLE "0:"
    INDEX 01 00:08:03
  TRACK 09 AUDIO
    TITLE "9:cjc113_2232"
    INDEX 01 00:08:23
  TRACK 10 AUDIO
    TITLE "0:"
    INDEX 01 00:09:57
  TRACK 11 AUDIO
    TITLE "10:cjc113_2233"
    INDEX 01 00:10:04
  TRACK 12 AUDIO
    TITLE "0:"
    INDEX 01 00:13:16
  TRACK 13 AUDIO
    TITLE "8:cjc113_2234"
    INDEX 01 00:13:63
  TRACK 14 AUDIO
    TITLE "0:"
    INDEX 01 00:14:68
  TRACK 15 AUDIO
    TITLE "9:cjc113_2235"
    INDEX 01 00:15:15
  TRACK 16 AUDIO
    TITLE "0:"
    INDEX 01 00:16:40
  TRACK 17 AUDIO
    TITLE "10:cjc113_2236"
    INDEX 01 00:16:63
  TRACK 18 AUDIO
    TITLE "0:"
    INDEX 01 00:20:06
  TRACK 19 AUDIO
    TITLE "8:cjc113_2237"
    INDEX 01 00:20:53
  TRACK 20 AUDIO
    TITLE "0:"
    INDEX 01 00:22:03
  TRACK 21 AUDIO
    TITLE "9:cjc113_2238"
    INDEX 01 00:22:27
  TRACK 22 AUDIO
    TITLE "0:"
    INDEX 01 00:23:38
  TRACK 23 AUDIO
    TITLE "10:cjc113_2239"
    INDEX 01 00:23:61
  TRACK 24 AUDIO
    TITLE "0:"
    INDEX 01 00:27:28
  TRACK 25 AUDIO
    TITLE "8:cjc113_2240"
    INDEX 01 00:28:00
  TRACK 26 AUDIO
    TITLE "0:"
    INDEX 01 00:29:19
  TRACK 27 AUDIO
    TITLE "9:cjc113_2241"
    INDEX 01 00:29:40
  TRACK 28 AUDIO
    TITLE "0:"
    INDEX 01 00:30:48
  TRACK 29 AUDIO
    TITLE "10:cjc113_2242"
    INDEX 01 00:30:71
  TRACK 30 AUDIO
    TITLE "0:"
    INDEX 01 00:34:63
  TRACK 31 AUDIO
    TITLE "10:cjc113_2243"
    INDEX 01 00:35:35
  TRACK 32 AUDIO
    TITLE "0:"
    INDEX 01 00:38:30
  TRACK 33 AUDIO
    TITLE "8:cjc113_2244"
    INDEX 01 00:38:73
  TRACK 34 AUDIO
    TITLE "0:"
    INDEX 01 00:40:11
  TRACK 35 AUDIO
    TITLE "9:cjc113_2245"
    INDEX 01 00:40:32
  TRACK 36 AUDIO
    TITLE "0:"
    INDEX 01 00:42:04
  TRACK 37 AUDIO
    TITLE "10:cjc113_2246"
    INDEX 01 00:42:25
  TRACK 38 AUDIO
    TITLE "0:"
    INDEX 01 00:45:53
  TRACK 39 AUDIO
    TITLE "8:cjc113_2247"
    INDEX 01 00:46:25
  TRACK 40 AUDIO
    TITLE "0:"
    INDEX 01 00:47:32
  TRACK 41 AUDIO
    TITLE "9:cjc113_2248"
    INDEX 01 00:47:56
  TRACK 42 AUDIO
    TITLE "0:"
    INDEX 01 00:49:12
  TRACK 43 AUDIO
    TITLE "10:cjc113_2249"
    INDEX 01 00:49:35
  TRACK 44 AUDIO
    TITLE "0:"
    INDEX 01 00:53:41
  TRACK 45 AUDIO
    TITLE "8:cjc113_2250"
    INDEX 01 00:54:13
  TRACK 46 AUDIO
    TITLE "0:"
    INDEX 01 00:55:28
  TRACK 47 AUDIO
    TITLE "9:cjc113_2251"
    INDEX 01 00:55:50
  TRACK 48 AUDIO
    TITLE "0:"
    INDEX 01 00:57:23
  TRACK 49 AUDIO
    TITLE "10:cjc113_2252"
    INDEX 01 00:57:46
  TRACK 50 AUDIO
    TITLE "0:"
    INDEX 01 01:01:36
  TRACK 51 AUDIO
    TITLE "8:cjc113_2253"
    INDEX 01 01:02:16
  TRACK 52 AUDIO
    TITLE "0:"
    INDEX 01 01:03:39
  TRACK 53 AUDIO
    TITLE "9:cjc113_2254"
    INDEX 01 01:03:61
  TRACK 54 AUDIO
    TITLE "0:"
    INDEX 01 01:05:13
  TRACK 55 AUDIO
    TITLE "10:cjc113_2255"
    INDEX 01 01:05:36
  TRACK 56 AUDIO
    TITLE "0:"
    INDEX 01 01:09:18
  TRACK 57 AUDIO
    TITLE "8:cjc113_2256"
    INDEX 01 01:09:65
  TRACK 58 AUDIO
    TITLE "0:"
    INDEX 01 01:11:07
  TRACK 59 AUDIO
    TITLE "9:cjc113_2257"
    INDEX 01 01:11:31
  TRACK 60 AUDIO
    TITLE "0:"
    INDEX 01 01:13:04
  TRACK 61 AUDIO
    TITLE "10:cjc113_2258"
    INDEX 01 01:13:18
  TRACK 62 AUDIO
    TITLE "0:"
    INDEX 01 01:16:46
  TRACK 63 AUDIO
    TITLE "8:cjc113_2259"
    INDEX 01 01:17:18
  TRACK 64 AUDIO
    TITLE "0:"
    INDEX 01 01:18:27
  TRACK 65 AUDIO
    TITLE "9:cjc113_2260"
    INDEX 01 01:18:49
  TRACK 66 AUDIO
    TITLE "0:"
    INDEX 01 01:20:16
  TRACK 67 AUDIO
    TITLE "10:cjc113_2261"
    INDEX 01 01:20:38
  TRACK 68 AUDIO
    TITLE "0:"
    INDEX 01 01:24:04
  TRACK 69 AUDIO
    TITLE "8:cjc113_2262"
    INDEX 01 01:24:51
  TRACK 70 AUDIO
    TITLE "0:"
    INDEX 01 01:25:68
  TRACK 71 AUDIO
    TITLE "9:cjc113_2263"
    INDEX 01 01:26:17
  TRACK 72 AUDIO
    TITLE "0:"
    INDEX 01 01:27:44
  TRACK 73 AUDIO
    TITLE "10:cjc113_2264"
    INDEX 01 01:27:67
  TRACK 74 AUDIO
    TITLE "0:"
    INDEX 01 01:31:14
  TRACK 75 AUDIO
    TITLE "8:cjc113_2265"
    INDEX 01 01:31:61
  TRACK 76 AUDIO
    TITLE "0:"
    INDEX 01 01:32:68
  TRACK 77 AUDIO
    TITLE "9:cjc113_2266"
    INDEX 01 01:33:15
  TRACK 78 AUDIO
    TITLE "0:"
    INDEX 01 01:34:55
  TRACK 79 AUDIO
    TITLE "10:cjc113_2267"
    INDEX 01 01:35:02
  TRACK 80 AUDIO
    TITLE "0:"
    INDEX 01 01:39:19
